<?xml version="1.0" encoding="utf-8" ?>
<svg xmlns="http://www.w3.org/2000/svg" xmlns:xlink="http://www.w3.org/1999/xlink" width="1024" height="1024"
     viewBox="0 0 1024 1024">
    <path fill="#181C22"
          d="M512.859 147.925C604.786 149.176 672.298 223.544 671.659 313.534C671.576 325.198 671.806 336.967 671.764 348.65C680.188 351.85 688.509 359.711 692.235 367.951C696.078 376.356 696.375 385.954 693.058 394.58C688.703 405.654 681.704 410.583 671.757 415.979C671.556 478.994 671.291 543.531 672.035 606.453C677.412 609.444 681.112 611.474 685.417 615.921C703.23 634.319 695.238 664.266 671.756 672.842C671.726 681.125 671.253 720.212 672.822 726.275C674.135 731.189 676.721 735.671 680.319 739.266C686.229 745.077 694.136 747.754 702.3 748.04C750.232 738.453 728.608 704.362 734.425 673.315C733.465 673.025 732.519 672.693 731.589 672.319C722.609 668.717 716.479 662.15 712.936 653.206C709.413 644.347 709.624 634.438 713.522 625.736C717.512 616.623 724.827 610.388 734.023 606.827C733.701 598.873 733.736 590.343 733.827 582.345C734.455 527.027 733.042 471.415 733.761 416.131C717.12 407.028 708.047 393.746 712.148 373.938C714.797 361.146 723.157 354.378 733.68 347.758C733.919 332.427 733.022 314.165 734.099 299.219C737.124 260.279 753.655 223.62 780.836 195.572C806.722 168.871 850.916 148.474 888.266 147.95C888.692 155.269 888.452 164.687 888.456 172.145L888.394 213.523C888.246 227.393 888.204 241.263 888.269 255.133C888.287 262.188 888.639 272.911 888.089 279.554C854.358 286.149 862.028 314.616 861.194 340.084C861.116 342.486 861.255 347.482 860.538 349.469C867.496 352.008 870.927 353.435 876.325 358.597C894.215 375.705 886.967 410.213 861.583 415.488C860.9 418.879 861.208 428.822 861.209 432.967L861.123 466.372C861.008 512.861 861.136 559.35 861.507 605.837C865.107 607.726 868.277 609.319 871.513 611.768C894.743 629.35 889.254 664.145 861.397 672.923C860.48 690.966 861.854 709.58 860.727 727.456C858.166 769.992 839.118 809.851 807.631 838.564C778.727 864.651 741.164 879.073 702.229 879.033C698.895 879.019 694.899 878.718 691.524 878.474C649.96 875.138 611.383 855.569 584.141 824C553.839 788.654 543.257 750.631 544.526 705.14C544.826 694.366 544.26 684.86 545.086 673.718C513.145 661.998 513.155 617.326 544.839 606.644C544.035 584.322 544.624 558.873 544.635 536.311L544.468 415.329C514.349 404.921 513.243 362.833 544.483 349.405L544.514 326.048C544.515 313.301 545.655 300.298 537.061 289.973C530.222 281.756 522.409 280.019 512.449 279.063C502.653 280.396 495.09 283.134 488.893 291.328C486.128 295.049 484.215 299.333 483.29 303.876C481.797 310.907 482.411 340.144 482.439 348.916C487.576 351.311 492.233 353.645 495.934 358.015C514.676 380.144 505.711 403.827 482.184 415.87L482.388 565.963C482.466 579.294 482.19 593.268 482.47 606.515C492.493 611.087 499.66 617.049 503.593 627.719C506.788 636.452 506.342 646.103 502.357 654.505C498.033 663.841 491.455 668.538 482.501 672.911C482.304 691.798 483.076 711.377 481.633 730.132C475.21 813.585 406.141 878.291 322.51 879.111C323.742 861.04 323.188 831.35 322.606 812.976C322.25 806.987 322.575 797.465 322.591 791.067L322.82 747.843C331.369 747.303 339.872 744.641 346.015 738.413C349.375 735.049 351.811 730.875 353.086 726.294C355.575 717.404 354.253 684.481 354.099 673.833C343.536 669.141 336.54 663.582 332.342 652.499C329.006 643.549 329.428 633.631 333.513 624.997C337.791 615.841 345.227 609.977 354.589 606.563L354.675 484.34C354.507 461.563 354.487 438.784 354.615 416.007C353.509 415.612 352.416 415.179 351.34 414.708C342.595 410.813 335.694 404.035 332.38 394.968C329.153 385.911 329.665 375.942 333.802 367.262C338.285 357.82 345.391 352.402 355.02 348.99C354.908 332.877 354.039 316.428 355.117 300.304C357.352 262.59 372.505 226.796 398.028 198.942C429.064 165.217 467.641 149.769 512.859 147.925Z"/>
    <path fill="#FB815E"
          d="M733.68 347.758C733.919 332.427 733.022 314.165 734.099 299.219C737.124 260.279 753.655 223.62 780.836 195.572C806.722 168.871 850.916 148.474 888.266 147.95C888.692 155.269 888.452 164.687 888.456 172.145L888.394 213.523C888.246 227.393 888.204 241.263 888.269 255.133C888.287 262.188 888.639 272.911 888.089 279.554C854.358 286.149 862.028 314.616 861.194 340.084C861.116 342.486 861.255 347.482 860.538 349.469C867.496 352.008 870.927 353.435 876.325 358.597C894.215 375.705 886.967 410.213 861.583 415.488C844.788 418.732 815.557 417.51 797.437 417.481L797.487 547.405C797.473 565.726 797.969 586.927 797.35 604.987L765.214 605.022C754.422 605.011 744.555 604.392 734.023 606.827C733.701 598.873 733.736 590.343 733.827 582.345C734.455 527.027 733.042 471.415 733.761 416.131C717.12 407.028 708.047 393.746 712.148 373.938C714.797 361.146 723.157 354.378 733.68 347.758Z"/>
    <path fill="#181C22"
          d="M888.394 213.523C888.246 227.393 888.204 241.263 888.269 255.133C888.287 262.188 888.639 272.911 888.089 279.554C854.358 286.149 862.028 314.616 861.194 340.084C861.116 342.486 861.255 347.482 860.538 349.469C851.299 346.474 838.089 347.418 828.074 347.465L797.18 347.676C797.575 311.825 793.184 281.351 817.81 250.928C837.026 227.188 858.801 216.99 888.394 213.523Z"/>
    <path fill="#FB815E"
          d="M545.086 673.718C560.65 676.482 590.452 673.932 607.494 674.959C607.595 715.827 603.278 752.379 635.231 784.207C654.441 803.343 675.743 811.021 702.229 813.088C702.443 835.069 702.443 857.052 702.229 879.033C698.895 879.019 694.899 878.718 691.524 878.474C649.96 875.138 611.383 855.569 584.141 824C553.839 788.654 543.257 750.631 544.526 705.14C544.826 694.366 544.26 684.86 545.086 673.718Z"/>
    <path fill="#FB815E"
          d="M355.02 348.99C354.908 332.877 354.039 316.428 355.117 300.304C357.352 262.59 372.505 226.796 398.028 198.942C429.064 165.217 467.641 149.769 512.859 147.925C512.881 169.435 513.232 192.025 512.646 213.424C484.36 215.406 461.558 225.014 442.418 246.643C414.983 277.645 418.497 309.751 418.546 347.575L383.955 347.542C376.326 347.54 361.879 346.991 355.02 348.99Z"/>
    <path fill="#FB815E"
          d="M354.615 416.007C362.751 417.503 372.842 417.092 381.237 417.095L418.635 417.029L418.498 605.019L383.591 605.102C375.421 605.123 362.115 604.631 354.589 606.563L354.675 484.34C354.507 461.563 354.487 438.784 354.615 416.007Z"/>
    <path fill="#FB815E"
          d="M544.468 415.329C551.059 417.258 556.44 416.983 563.237 417.064C577.952 417.241 592.833 416.705 607.53 417.122C607.851 479.759 607.854 542.398 607.538 605.035L575.206 605.119C566.509 605.125 552.756 604.653 544.839 606.644C544.035 584.322 544.624 558.873 544.635 536.311L544.468 415.329Z"/>
    <path fill="#FB815E"
          d="M354.099 673.833C363.529 675.035 373.498 674.792 383.034 674.791L418.789 674.746C418.969 716.574 422.095 751.943 389.679 784.178C371.987 801.771 347.852 813.683 322.606 812.976C322.25 806.987 322.575 797.465 322.591 791.067L322.82 747.843C331.369 747.303 339.872 744.641 346.015 738.413C349.375 735.049 351.811 730.875 353.086 726.294C355.575 717.404 354.253 684.481 354.099 673.833Z"/>
    <path fill="#FB815E"
          d="M734.425 673.315C742.472 675.145 753.277 674.617 761.757 674.586C773.662 674.478 785.568 674.47 797.474 674.559C797.538 716.935 802.082 751.842 768.861 785.011C751.436 802.734 727.591 812.669 702.736 812.56L702.055 812.55C702.014 791.383 702.677 769.016 702.3 748.04C750.232 738.453 728.608 704.362 734.425 673.315Z"/>
    <path fill="#FB815E"
          d="M512.526 213.717C539.645 214.548 563.222 224.872 581.686 244.737C611.265 276.561 607.512 308.268 607.42 347.487L578.09 347.539C569.185 347.513 552.487 346.594 544.483 349.405L544.514 326.048C544.515 313.301 545.655 300.298 537.061 289.973C530.222 281.756 522.409 280.019 512.449 279.063L512.526 213.717Z"/>
    <path fill="#181C22"
          d="M138.447 147.958C177.54 148.402 219.483 168.383 246.449 196.309C273.199 224.012 288.291 259.759 291.618 297.923C292.958 313.283 292.482 332.809 292.372 348.462C298.637 351.837 302.243 353.812 306.941 359.189C321.03 375.315 317.996 398.826 300.383 410.952C297.851 412.696 294.968 414.359 292.189 415.707C293.406 478.919 291.039 543.61 292.52 606.47C302.579 611.546 310.315 617.607 314.021 628.772C316.96 637.692 316.144 647.424 311.762 655.73C307.361 664.218 301.014 668.529 292.775 672.806C292.549 681.665 292.454 690.526 292.49 699.387C292.401 724.901 291.659 743.159 322.82 747.843L322.591 791.067C322.575 797.465 322.25 806.987 322.606 812.976C323.188 831.35 323.742 861.04 322.51 879.111C320.223 879.096 317.938 879.021 315.655 878.885C272.87 876.271 234.933 858.192 206.594 826.005C183.941 800.759 169.847 768.998 166.328 735.262C165.48 726.534 165.614 714.385 165.619 705.492C165.625 695.653 165.201 683.461 165.829 673.796C131.55 664.553 131.372 617.031 165.483 606.566C165.987 543.135 166.017 479.701 165.573 416.27C154.945 413.399 145.587 405.201 141.926 394.755C138.697 385.342 139.366 375.03 143.784 366.113C148.409 356.824 155.806 352.134 165.257 348.908C165.538 344.412 165.476 339.522 165.479 335.002C165.493 311.753 168.763 284.892 138.445 279.734C137.883 272.076 138.166 261.213 138.185 253.341C138.154 239.999 138.254 226.656 138.487 213.315C138.319 199.426 138.268 185.536 138.334 171.646C138.338 164.268 138.109 155.225 138.447 147.958Z"/>
    <path fill="#FB815E"
          d="M165.829 673.796C171.992 675.004 181.38 674.49 187.898 674.598C201.46 674.823 215.477 674.29 229.013 674.723C229.119 717.251 224.282 752.367 257.531 785.567C270.851 799.038 288.022 808.046 306.677 811.347C312.969 812.438 316.852 812.304 322.606 812.976C323.188 831.35 323.742 861.04 322.51 879.111C320.223 879.096 317.938 879.021 315.655 878.885C272.87 876.271 234.933 858.192 206.594 826.005C183.941 800.759 169.847 768.998 166.328 735.262C165.48 726.534 165.614 714.385 165.619 705.492C165.625 695.653 165.201 683.461 165.829 673.796Z"/>
    <path fill="#FB815E"
          d="M165.573 416.27C173.088 417.888 182.649 417.287 190.387 417.329C203.103 417.398 216.338 416.777 229.031 417.179L228.96 605.313L195.156 605.096C186.158 605.047 174.049 604.517 165.483 606.566C165.987 543.135 166.017 479.701 165.573 416.27Z"/>
    <path fill="#FB815E"
          d="M138.487 213.315C171.846 219.373 190.537 227.164 211.416 255.83C232.52 284.806 228.998 314.119 228.901 347.631L194.185 347.598C184.657 347.593 174.577 347.136 165.257 348.908C165.538 344.412 165.476 339.522 165.479 335.002C165.493 311.753 168.763 284.892 138.445 279.734C137.883 272.076 138.166 261.213 138.185 253.341C138.154 239.999 138.254 226.656 138.487 213.315Z"/>
</svg>